<?xml version="1.0" standalone="no"?>
<!DOCTYPE svg PUBLIC "-//W3C//DTD SVG 1.1//EN" "http://www.w3.org/Graphics/SVG/1.1/DTD/svg11.dtd" >
<svg xmlns="http://www.w3.org/2000/svg" xmlns:xlink="http://www.w3.org/1999/xlink" version="1.1">
<metadata>
Created by FontForge 20170731 at Mon Apr 30 13:55:17 2007
 By Aleksey,,,
Copyright 1990 as an unpublished work by Bitstream Inc.  All rights reserved.  Confidential.
</metadata>
<defs>
<font id="Monospace821BT-Roman" horiz-adv-x="602" >
  <font-face 
    font-family="Monospace 821"
    font-weight="500"
    font-stretch="normal"
    units-per-em="1000"
    panose-1="0 0 0 0 0 0 0 0 0 0"
    ascent="800"
    descent="-200"
    x-height="537"
    cap-height="694"
    bbox="-53 -236 634 963"
    underline-thickness="69"
    underline-position="-240"
    unicode-range="U+0020-FB02"
  />
<missing-glyph 
 />
    <glyph glyph-name=".notdef" 
 />
    <glyph glyph-name=".null" horiz-adv-x="0" 
 />
    <glyph glyph-name="nonmarkingreturn" 
 />
    <glyph glyph-name="space" unicode=" " 
 />
    <glyph glyph-name="exclam" unicode="!" 
d="M276 207l-24 284v204h98v-204l-23 -284h-51zM231 0v149h139v-149h-139z" />
    <glyph glyph-name="quotedbl" unicode="&#x22;" 
d="M195 719h68v-272h-68v272zM340 719h67v-272h-67v272z" />
    <glyph glyph-name="numbersign" unicode="#" 
d="M233 712h70l-48 -222h139l50 222h70l-47 -222h83v-71h-100l-27 -128h86v-72h-101l-47 -221h-70l47 221h-140l-49 -221h-68l47 221h-76v72h90l28 128h-79v71h93zM241 419l-29 -129h141l27 129h-139z" />
    <glyph glyph-name="dollar" unicode="$" 
d="M275 -94v87q-112 11 -165 63t-53 151v9h87v-10q0 -62 35 -99t96 -40v248q-203 32 -203 183q0 81 54.5 132.5t148.5 55.5v66h51v-66q97 -8 148.5 -54.5t52.5 -126.5h-87q-12 100 -114 106v-220q119 -26 168.5 -68.5t49.5 -128.5t-56 -138t-162 -62v-88h-51zM326 64
q61 6 94.5 37.5t33.5 82.5q0 47 -30.5 74.5t-97.5 43.5v-238zM275 399v212q-53 -1 -84.5 -30t-31.5 -76q0 -45 28 -70.5t88 -35.5z" />
    <glyph glyph-name="percent" unicode="%" 
d="M16 543q0 66 45.5 111t110.5 45q64 0 110 -45.5t46 -110.5q0 -64 -45.5 -110t-110.5 -46t-110.5 45t-45.5 111zM82 543q0 -38 26 -64t64 -26q37 0 63.5 26.5t26.5 63.5t-26.5 63.5t-63.5 26.5q-38 0 -64 -26.5t-26 -63.5zM59 227l-17 47l509 204l20 -47zM274 156
q0 65 45 110.5t110 45.5q64 0 110.5 -46t46.5 -110t-46 -110t-111 -46t-110 45t-45 111zM340 156q0 -38 25.5 -64t63.5 -26t64 26.5t26 63.5t-26.5 63.5t-63.5 26.5t-63 -26t-26 -64z" />
    <glyph glyph-name="ampersand" unicode="&#x26;" 
d="M235 338q-102 -63 -102 -140q0 -54 33 -89.5t86 -35.5q82 0 129 72zM260 440q82 48 82 116q0 34 -18.5 56.5t-46.5 22.5q-30 0 -51 -23t-21 -56q0 -52 55 -116zM480 155l120 -155h-114l-58 77q-77 -94 -192 -94q-83 0 -136 57t-53 143q0 67 33.5 115t108.5 94
q-67 88 -67 164q0 66 43.5 111t111.5 45q60 0 101.5 -43t41.5 -110q0 -103 -111 -179l113 -145q16 38 18 102h89q-4 -99 -49 -182z" />
    <glyph glyph-name="quotesingle" unicode="'" 
d="M268 719h67v-272h-67v272z" />
    <glyph glyph-name="parenleft" unicode="(" 
d="M374 -193q-163 214 -163 452t163 452h63q-130 -206 -130 -452t130 -452h-63z" />
    <glyph glyph-name="parenright" unicode=")" 
d="M229 -193h-63q129 205 129 452t-129 452h63q163 -214 163 -452t-163 -452z" />
    <glyph glyph-name="asterisk" unicode="*" 
d="M247 484l-144 36l26 77l137 -50v147h69v-147l136 50l27 -77l-145 -36l101 -122l-67 -48l-87 130l-85 -128l-68 46z" />
    <glyph glyph-name="plus" unicode="+" 
d="M266 608h70v-217h197v-69h-197v-217h-70v217h-198v69h198v217z" />
    <glyph glyph-name="comma" unicode="," 
d="M232 0v150h138v-161q0 -90 -41.5 -138.5t-120.5 -52.5v68q50 6 70.5 32.5t20.5 82.5v19h-67z" />
    <glyph glyph-name="hyphen" unicode="-" 
d="M180 229v79h242v-79h-242z" />
    <glyph glyph-name="period" unicode="." 
d="M232 0v149h138v-149h-138z" />
    <glyph glyph-name="slash" unicode="/" 
d="M145 -93l241 806h70l-242 -806h-69z" />
    <glyph glyph-name="zero" unicode="0" 
d="M60 339q0 177 62 268.5t179 91.5q118 0 179 -91t61 -269t-61 -268.5t-179 -90.5t-179.5 91t-61.5 268zM156 339q0 -142 34.5 -209.5t110.5 -67.5q77 0 110.5 67.5t33.5 209.5t-33.5 209.5t-110.5 67.5q-76 0 -110.5 -67.5t-34.5 -209.5z" />
    <glyph glyph-name="one" unicode="1" 
d="M283 0v494h-162v71q89 2 132.5 33t52.5 101h68v-699h-91z" />
    <glyph glyph-name="two" unicode="2" 
d="M57 0v3q0 109 51.5 177t169.5 132l59 32q102 56 102 149q0 55 -37.5 89t-101.5 34q-63 0 -99.5 -42.5t-36.5 -118.5v-8h-91v14q0 111 63 174.5t169 63.5q103 0 166 -57t63 -150q0 -141 -150 -219l-59 -30q-75 -39 -115 -74t-53 -83h377v-86h-477z" />
    <glyph glyph-name="three" unicode="3" 
d="M49 218h92q2 -74 40.5 -114t108.5 -40q68 0 107.5 36.5t39.5 100.5q0 58 -38.5 90.5t-109.5 32.5q-19 0 -49 -2v79q22 -1 39 -1q132 0 132 108q0 53 -31.5 81t-90.5 28q-135 0 -135 -148h-89v7q0 103 59.5 163t159.5 60q108 0 166 -49.5t58 -137.5q0 -102 -88 -140
q114 -42 114 -171q0 -99 -68 -160t-182 -61q-107 0 -171 63t-64 168v7z" />
    <glyph glyph-name="four" unicode="4" 
d="M356 0v172h-305v88l304 419h91v-427h99v-80h-99v-172h-90zM135 252h221v311z" />
    <glyph glyph-name="five" unicode="5" 
d="M53 181h93q8 -54 45 -84.5t94 -30.5q70 0 112.5 42.5t42.5 111.5q0 71 -42 113t-113 42q-82 0 -132 -64h-80l55 368h371v-82h-304l-28 -187q51 45 133 45q107 0 172 -63.5t65 -166.5q0 -109 -69 -177t-180 -68q-98 0 -162.5 55.5t-72.5 145.5z" />
    <glyph glyph-name="six" unicode="6" 
d="M541 507h-92q-11 111 -126 111q-151 0 -164 -252q60 77 166 77q98 0 160 -62.5t62 -167.5q0 -103 -65 -168t-171 -65q-121 0 -186.5 84t-65.5 244q0 188 69.5 289.5t193.5 101.5q99 0 156.5 -50.5t62.5 -141.5zM450 212q0 69 -38 109t-98 40q-68 0 -107 -40t-39 -110
t38.5 -111t103.5 -41q62 0 101 42t39 111z" />
    <glyph glyph-name="seven" unicode="7" 
d="M162 0q44 329 285 588h-380v91h476v-83q-237 -256 -280 -596h-101z" />
    <glyph glyph-name="eight" unicode="8" 
d="M177 374q-92 42 -92 146q0 78 59 128.5t157 50.5t156.5 -50.5t58.5 -128.5q0 -105 -91 -146q115 -44 115 -175q0 -98 -64 -158.5t-175 -60.5t-175 60.5t-64 158.5q0 131 115 175zM158 201q0 -63 38 -100t105 -37t105 37t38 100q0 59 -38 93.5t-105 34.5t-105 -34.5
t-38 -93.5zM180 512q0 -49 33 -79.5t88 -30.5t88 30.5t33 79.5q0 50 -32.5 78.5t-88.5 28.5t-88.5 -28.5t-32.5 -78.5z" />
    <glyph glyph-name="nine" unicode="9" 
d="M61 172h92q2 -53 35 -82t90 -29q151 0 164 252q-60 -77 -165 -77q-98 0 -160 62.5t-62 167.5q0 103 65 168t171 65q121 0 186 -84t65 -244q0 -189 -69 -290t-196 -101q-99 0 -157.5 52.5t-58.5 139.5zM152 467q0 -69 38 -108.5t98 -39.5q68 0 107 39.5t39 109.5t-39 111
t-104 41q-62 0 -100.5 -42t-38.5 -111z" />
    <glyph glyph-name="colon" unicode=":" 
d="M232 0v149h138v-149h-138zM232 388v149h138v-149h-138z" />
    <glyph glyph-name="semicolon" unicode=";" 
d="M232 388v149h138v-149h-138zM232 0v150h138v-161q0 -90 -41.5 -138.5t-120.5 -52.5v68q50 6 70.5 32.5t20.5 82.5v19h-67z" />
    <glyph glyph-name="less" unicode="&#x3c;" 
d="M533 522l-368 -166l368 -164v-80l-465 213v63l465 213v-79z" />
    <glyph glyph-name="equal" unicode="=" 
d="M68 292h465v-68h-465v68zM68 486h465v-69h-465v69z" />
    <glyph glyph-name="greater" unicode="&#x3e;" 
d="M68 522v79l465 -213v-63l-465 -213v80l369 164z" />
    <glyph glyph-name="question" unicode="?" 
d="M252 207q0 5 -0.5 13t-0.5 12q0 89 77 160l38 35q55 51 55 106q0 47 -30.5 74.5t-84.5 27.5q-129 0 -133 -142h-87v12q0 99 58 153.5t165 54.5q94 0 150.5 -48.5t56.5 -126.5q0 -84 -74 -149l-41 -36q-35 -31 -49 -55.5t-14 -67.5q0 -15 1 -23h-87zM225 0v149h139v-149
h-139z" />
    <glyph glyph-name="at" unicode="@" 
d="M585 177q-22 -7 -36 -7q-37 0 -54 16.5t-17 52.5v6q-63 -87 -146 -87q-60 0 -94.5 42t-34.5 116q0 135 123 165q20 5 44 8t39 5t29 5t20.5 10t6.5 19q0 50 -39 85.5t-105 35.5q-179 0 -179 -302q0 -158 40.5 -229t136.5 -71q44 0 86 16v-66q-41 -16 -98 -16
q-123 0 -182 87t-59 265q0 380 258 380q120 0 180 -87q40 -58 40 -202v-147v-17q0 -28 25 -28q5 0 16 3v-58zM469 366v87q-20 -11 -62 -18t-52 -10q-40 -11 -57.5 -35.5t-17.5 -69.5q0 -95 71 -95q51 0 84.5 37t33.5 104z" />
    <glyph glyph-name="A" unicode="A" 
d="M-3 0l253 695h102l254 -695h-94l-73 204h-277l-73 -204h-92zM194 289h214l-107 306z" />
    <glyph glyph-name="B" unicode="B" 
d="M426 375q61 -16 93 -59t32 -108q0 -98 -57.5 -153t-162.5 -55h-261v694h247q203 0 203 -174q0 -97 -94 -145zM298 406q131 0 131 104q0 53 -30 77t-93 24h-144v-205h136zM320 83q135 0 135 123q0 60 -35.5 88t-108.5 28h-149v-239h158z" />
    <glyph glyph-name="C" unicode="C" 
d="M463 258h96q-13 -131 -80 -204t-169 -73q-119 0 -188 96.5t-69 269.5q0 174 69 270t188 96q93 0 157.5 -61t80.5 -167h-95q-16 70 -53.5 107.5t-89.5 37.5q-73 0 -117 -74t-44 -209t44 -208.5t117 -73.5q60 0 101 50t52 143z" />
    <glyph glyph-name="D" unicode="D" 
d="M293 611h-131v-528h131q86 0 127.5 65t41.5 199q0 141 -40 202.5t-129 61.5zM300 694q258 0 258 -347q0 -167 -67.5 -257t-190.5 -90h-231v694h231z" />
    <glyph glyph-name="E" unicode="E" 
d="M91 0v694h432v-84h-340v-208h310v-83h-310v-235h348v-84h-440z" />
    <glyph glyph-name="F" unicode="F" 
d="M96 0v694h452v-84h-359v-208h292v-83h-292v-319h-93z" />
    <glyph glyph-name="G" unicode="G" 
d="M484 93q-70 -112 -190 -112q-112 0 -184.5 99t-72.5 267q0 171 74 268.5t200 97.5q96 0 157 -60t74 -168h-99q-10 71 -46 109.5t-92 38.5q-82 0 -127 -73.5t-45 -209.5q0 -135 46 -209t121 -74q68 0 111 58.5t43 158.5v6h-156v85h253v-375h-50z" />
    <glyph glyph-name="H" unicode="H" 
d="M69 0v694h93v-283h278v283h92v-694h-92v326h-278v-326h-93z" />
    <glyph glyph-name="I" unicode="I" 
d="M255 84v526h-128v84h348v-84h-128v-526h128v-84h-348v84h128z" />
    <glyph glyph-name="J" unicode="J" 
d="M381 230v464h91v-468q0 -129 -53.5 -187t-175.5 -58t-175.5 58t-53.5 188q0 15 2 51h90q-2 -36 -2 -50q0 -86 32.5 -124.5t107.5 -38.5q78 0 107.5 38.5t29.5 126.5z" />
    <glyph glyph-name="K" unicode="K" 
d="M84 0v694h92v-321l297 321h122l-272 -292l280 -402h-112l-233 335l-82 -88v-247h-92z" />
    <glyph glyph-name="L" unicode="L" 
d="M98 0v694h92v-610h354v-84h-446z" />
    <glyph glyph-name="M" unicode="M" 
d="M51 0v694h123l127 -612l128 612h122v-694h-78v630l-129 -630h-86l-130 630v-630h-77z" />
    <glyph glyph-name="N" unicode="N" 
d="M73 0v694h109l263 -569v569h84v-694h-107l-266 569v-569h-83z" />
    <glyph glyph-name="O" unicode="O" 
d="M44 347q0 174 69 270t188 96t188 -96.5t69 -269.5t-69 -269.5t-188 -96.5t-188 96.5t-69 269.5zM140 347q0 -134 44 -208t117 -74t117 74t44 208t-44 208.5t-117 74.5t-117 -74t-44 -209z" />
    <glyph glyph-name="P" unicode="P" 
d="M90 0v694h188h52q103 0 156.5 -51t53.5 -149q0 -105 -71 -161q-34 -26 -74 -33t-111 -7h-102v-293h-92zM305 609h-123v-231h116q76 0 111 24.5t35 91.5q0 64 -33 89.5t-106 25.5z" />
    <glyph glyph-name="Q" unicode="Q" 
d="M456 43q-59 -62 -155 -62q-119 0 -188 96t-69 270t69 270t188 96t188 -96.5t69 -269.5q0 -149 -55 -246l82 -84l-53 -53zM393 107l-78 82l54 51l65 -68q28 76 28 175q0 134 -44 208.5t-117 74.5t-117 -74t-44 -209t44 -208.5t117 -73.5q51 0 92 42z" />
    <glyph glyph-name="R" unicode="R" 
d="M78 0v694h179h53q103 0 156.5 -51t53.5 -147q0 -115 -92 -157q43 -13 57.5 -41t18.5 -87l7 -112q4 -64 31 -80v-19h-105q-13 21 -18 94l-5 90q-4 74 -31 91.5t-117 17.5h-95v-293h-93zM284 609h-113v-231h107q76 0 111 24.5t35 91.5q0 64 -33.5 89.5t-106.5 25.5z" />
    <glyph glyph-name="S" unicode="S" 
d="M143 229q0 -76 44.5 -120t119.5 -44q68 0 109.5 34t41.5 92q0 19 -3.5 33t-14 25.5t-18.5 18.5t-30 15t-33.5 11.5t-44 12t-48.5 13.5q-52 14 -82.5 27t-58.5 33.5t-40 51t-12 74.5q0 92 61.5 149t159.5 57q113 0 175 -58.5t62 -164.5v-2h-91q-5 69 -42.5 106t-100.5 37
q-60 0 -95 -30t-35 -80q0 -57 33 -78.5t134 -44.5q117 -27 166.5 -65.5t49.5 -130.5q0 -100 -66.5 -160t-180.5 -60q-115 0 -180.5 64.5t-70.5 183.5h91z" />
    <glyph glyph-name="T" unicode="T" 
d="M255 0v610h-211v84h513v-84h-210v-610h-92z" />
    <glyph glyph-name="U" unicode="U" 
d="M62 264v430h92v-435q0 -98 36 -146t111 -48q146 0 146 194v435h93v-430q0 -144 -58.5 -213.5t-180.5 -69.5t-180.5 69.5t-58.5 213.5z" />
    <glyph glyph-name="V" unicode="V" 
d="M475 695h95l-219 -695h-100l-224 695h95l179 -591z" />
    <glyph glyph-name="W" unicode="W" 
d="M112 0l-120 695h82l86 -591l97 591h87l99 -591l86 591h80l-122 -695h-84l-103 602l-100 -602h-88z" />
    <glyph glyph-name="X" unicode="X" 
d="M36 0l217 356l-205 339h105l150 -257l153 257h101l-206 -338l217 -357h-106l-162 281l-159 -281h-105z" />
    <glyph glyph-name="Y" unicode="Y" 
d="M353 0h-93v275l-238 420h111l173 -329l171 329h104l-228 -414v-281z" />
    <glyph glyph-name="Z" unicode="Z" 
d="M52 0v80l394 530h-367v84h471v-79l-388 -531h388v-84h-498z" />
    <glyph glyph-name="bracketleft" unicode="[" 
d="M291 -109h107v-67h-195v870h195v-67h-107v-736z" />
    <glyph glyph-name="backslash" unicode="\" 
d="M456 -93h-69l-242 806h70z" />
    <glyph glyph-name="bracketright" unicode="]" 
d="M287 -109v736h-107v67h195v-870h-195v67h107z" />
    <glyph glyph-name="asciicircum" unicode="^" 
d="M334 664l135 -172q6 -9 6 -18q0 -11 -7.5 -18t-17.5 -7q-8 0 -13 5l-136 136l-136 -136q-5 -5 -13 -5q-10 0 -17.5 7t-7.5 18q0 9 6 18l136 172q9 12 32 12t33 -12z" />
    <glyph glyph-name="underscore" unicode="_" 
d="M0 -166h602v-70h-602v70z" />
    <glyph glyph-name="grave" unicode="`" 
d="M372 610h-59l-139 170h98z" />
    <glyph glyph-name="a" unicode="a" 
d="M413 70q-76 -86 -176 -86q-76 0 -118 42t-42 115q0 85 45.5 123.5t148.5 50.5q98 11 110 16q21 8 24 37q1 9 1 28q0 82 -112 82q-116 0 -116 -97h-79v6q0 78 52.5 123.5t145.5 45.5q100 0 147 -40t47 -122v-278q0 -29 6 -41t27 -12q6 0 21 3v-68q-27 -8 -49 -8
q-83 0 -83 77v3zM403 188v85q-20 -11 -42.5 -17t-62 -11.5t-49.5 -7.5q-45 -8 -64.5 -28t-19.5 -60q0 -88 87 -88q65 0 108 35.5t43 91.5z" />
    <glyph glyph-name="b" unicode="b" 
d="M177 83v-83h-88v718h88v-263q56 101 154 101q94 0 151.5 -76.5t57.5 -210.5q0 -133 -57.5 -210.5t-151.5 -77.5q-101 0 -154 102zM450 269q0 99 -36.5 153.5t-97.5 54.5q-67 0 -102.5 -53t-35.5 -155t36 -155.5t102 -53.5q61 0 97.5 55t36.5 154z" />
    <glyph glyph-name="c" unicode="c" 
d="M436 359q-3 57 -36.5 88.5t-91.5 31.5q-66 0 -103.5 -54t-37.5 -155q0 -103 36 -156.5t105 -53.5q54 0 89.5 35t42.5 97h84q-6 -97 -65.5 -154t-153.5 -57q-108 0 -168 75.5t-60 210.5q0 136 62 212.5t169 76.5q96 0 154 -53.5t61 -143.5h-87z" />
    <glyph glyph-name="d" unicode="d" 
d="M424 83q-52 -102 -154 -102q-94 0 -151.5 77.5t-57.5 210.5q0 134 57.5 210.5t151.5 76.5q99 0 155 -101v263h87v-718h-88v83zM285 477q-61 0 -97.5 -54.5t-36.5 -153.5t36.5 -154t97.5 -55q66 0 102 53.5t36 155.5t-35.5 155t-102.5 53z" />
    <glyph glyph-name="e" unicode="e" 
d="M171 243v-3q0 -85 37.5 -132.5t100.5 -47.5q44 0 75 24.5t43 69.5h87q-15 -79 -73.5 -126t-142.5 -47q-100 0 -159.5 76.5t-59.5 211.5q0 133 61 210t161 77q104 0 163.5 -71.5t59.5 -200.5q0 -27 -1 -41h-352zM171 317h261q0 77 -34 119.5t-94 42.5t-94.5 -42
t-38.5 -120z" />
    <glyph glyph-name="f" unicode="f" 
d="M216 444h-161v75h161v49q0 78 47 114t146 36q33 0 95 -5v-76q-54 4 -75 4q-64 0 -94.5 -21.5t-30.5 -67.5v-33h200v-75h-200v-444h-88v444z" />
    <glyph glyph-name="g" unicode="g" 
d="M152 269q0 -100 36 -154.5t98 -54.5q67 0 103.5 54t36.5 155t-36.5 154.5t-103.5 53.5q-62 0 -98 -54t-36 -154zM512 24q0 -120 -51.5 -175.5t-172.5 -55.5q-97 0 -150.5 41t-53.5 113v4h85q0 -82 124 -82q73 0 104 33t31 104v76q-38 -54 -72.5 -77.5t-85.5 -23.5
q-94 0 -151.5 77t-57.5 211t57.5 210.5t151.5 76.5q97 0 158 -106v87h84v-513z" />
    <glyph glyph-name="h" unicode="h" 
d="M94 0v718h88v-259q48 97 156 97q109 0 151 -73q22 -38 22 -130v-27v-326h-88v335q0 74 -21 108t-77 34q-67 0 -105 -43.5t-38 -123.5v-310h-88z" />
    <glyph glyph-name="i" unicode="i" 
d="M363 74h182v-74h-450v74h180v370h-138v75h226v-445zM366 718v-100h-93v100h93z" />
    <glyph glyph-name="j" unicode="j" 
d="M129 -125q60 -5 67 -5q60 0 77.5 20t17.5 80v474h-138v75h226v-556q0 -93 -34.5 -132.5t-125.5 -39.5q-32 0 -90 5v79zM379 718v-100h-88v100h88z" />
    <glyph glyph-name="k" unicode="k" 
d="M106 0v718h88v-423l243 242h111l-202 -198l197 -339h-99l-158 278l-92 -89v-189h-88z" />
    <glyph glyph-name="l" unicode="l" 
d="M269 644h-138v74h226v-644h180v-74h-449v74h181v570z" />
    <glyph glyph-name="m" unicode="m" 
d="M59 0v537h78v-57q31 76 96 76q76 0 99 -78q42 78 108 78q61 0 83 -45t22 -140v-371h-81v377q0 55 -10.5 81t-39.5 26q-33 0 -53.5 -33t-20.5 -92v-359h-76v377q0 55 -11 81t-40 26q-33 0 -53 -32.5t-20 -92.5v-359h-81z" />
    <glyph glyph-name="n" unicode="n" 
d="M94 0v537h84v-82q53 101 160 101q109 0 151 -73q22 -38 22 -130v-27v-326h-88v335q0 74 -21 108t-77 34q-67 0 -105 -43.5t-38 -123.5v-310h-88z" />
    <glyph glyph-name="o" unicode="o" 
d="M68 268q0 137 62 212.5t171 75.5t171 -75.5t62 -212.5q0 -136 -62 -211.5t-171 -75.5t-171 75.5t-62 211.5zM158 269q0 -102 37.5 -156t105.5 -54t105.5 54t37.5 156t-37.5 155.5t-105.5 53.5q-69 0 -106 -53.5t-37 -155.5z" />
    <glyph glyph-name="p" unicode="p" 
d="M316 60q61 0 97.5 55t36.5 154t-36.5 153.5t-97.5 54.5q-67 0 -102.5 -53t-35.5 -155t36 -155.5t102 -53.5zM177 454q29 53 65.5 77.5t88.5 24.5q94 0 151.5 -76.5t57.5 -210.5t-57.5 -211t-151.5 -77q-52 0 -87.5 23.5t-66.5 77.5v-290h-88v745h88v-83z" />
    <glyph glyph-name="q" unicode="q" 
d="M424 454v83h88v-745h-88v290q-30 -54 -66 -77.5t-88 -23.5q-94 0 -151.5 77t-57.5 211t57.5 210.5t151.5 76.5q52 0 88.5 -24.5t65.5 -77.5zM151 269q0 -99 36.5 -154t97.5 -55q66 0 102 53.5t36 155.5t-35.5 155t-102.5 53q-61 0 -97.5 -54.5t-36.5 -153.5z" />
    <glyph glyph-name="r" unicode="r" 
d="M127 0v537h80v-89q57 108 165 108q172 0 175 -186h-89q0 107 -104 107q-66 0 -102.5 -43t-36.5 -127v-307h-88z" />
    <glyph glyph-name="s" unicode="s" 
d="M357 313q85 -20 123 -52.5t38 -102.5q0 -82 -57.5 -129.5t-162.5 -47.5q-100 0 -154 48t-56 138h85q9 -108 133 -108q58 0 91 24.5t33 64.5q0 34 -19 49t-63 26l-98 24q-80 20 -115 53.5t-35 99.5q0 70 52 113t146 43q93 0 148.5 -44t55.5 -116v-2h-86q-2 41 -33.5 64
t-84.5 23q-110 0 -110 -78q0 -30 19.5 -44.5t64.5 -25.5z" />
    <glyph glyph-name="t" unicode="t" 
d="M212 444h-152v75h152v157h88v-157h201v-75h-201v-254q0 -76 22 -105t103 -29q28 0 76 6v-76q-72 -5 -104 -5q-58 0 -94.5 11t-56.5 36.5t-27 59.5t-7 87v269z" />
    <glyph glyph-name="u" unicode="u" 
d="M508 537v-537h-84v82q-53 -101 -160 -101q-109 0 -151 73q-22 38 -22 130v27v326h88v-335v-10q0 -68 22.5 -99.5t75.5 -31.5q67 0 105 43t38 123v310h88z" />
    <glyph glyph-name="v" unicode="v" 
d="M255 0l-199 537h92l154 -433l151 433h91l-196 -537h-93z" />
    <glyph glyph-name="w" unicode="w" 
d="M221 0h-84l-132 537h84l89 -456l79 456h87l79 -456l89 456h85l-132 -537h-84l-80 456z" />
    <glyph glyph-name="x" unicode="x" 
d="M158 0h-103l188 276l-178 261h104l131 -195l131 195h102l-181 -260l192 -277h-106l-142 209z" />
    <glyph glyph-name="y" unicode="y" 
d="M455 537h94l-218 -606q-28 -79 -60 -109t-102 -30q-53 0 -85 8v85q50 -10 81 -10q58 0 75 45l18 50l-204 567h96l151 -442z" />
    <glyph glyph-name="z" unicode="z" 
d="M400 463h-298v74h406v-68l-310 -395h324v-74h-435v67z" />
    <glyph glyph-name="braceleft" unicode="{" 
d="M269 539q0 104 33.5 139t145.5 35h23v-72h-18q-63 0 -81.5 -23.5t-18.5 -89.5v-110q0 -73 -19.5 -108t-79.5 -51q60 -16 79.5 -51t19.5 -108v-110q0 -67 19 -89.5t84 -22.5h15v-73h-23q-112 0 -145.5 35.5t-33.5 139.5v112q0 72 -26.5 101.5t-93.5 29.5h-19v73h19
q66 0 93 29t27 101v113z" />
    <glyph glyph-name="bar" unicode="|" 
d="M265 764h73v-1000h-73v1000z" />
    <glyph glyph-name="braceright" unicode="}" 
d="M333 539v-113q0 -72 25.5 -101.5t90.5 -29.5q3 0 10.5 0.5t11.5 0.5v-73h-19q-66 0 -92.5 -29.5t-26.5 -101.5v-112q0 -104 -34 -139.5t-146 -35.5h-23v73h19q63 0 81.5 23t18.5 89v110q0 74 19 108.5t79 50.5q-60 16 -79 50.5t-19 108.5v110q0 67 -18.5 90t-81.5 23h-19
v72h23q112 0 146 -35t34 -139z" />
    <glyph glyph-name="asciitilde" unicode="~" 
d="M65 286q0 26 42 52.5t94 26.5q34 0 101.5 -21t100.5 -21q32 0 67.5 18t42.5 18q24 0 24 -30q0 -26 -42.5 -52.5t-93.5 -26.5q-33 0 -101 21t-101 21q-32 0 -67.5 -18t-42.5 -18q-24 0 -24 30z" />
    <glyph glyph-name="exclamdown" unicode="&#xa1;" 
d="M325 488l24 -285v-203h-98v203l23 285h51zM371 713v-149h-139v149h139z" />
    <glyph glyph-name="cent" unicode="&#xa2;" 
d="M461 359q-4 66 -60 99l-139 -392q36 -6 51 -6q62 0 103.5 35.5t48.5 96.5h84q-4 -93 -70.5 -152t-165.5 -59q-19 0 -79 8l-34 -96h-50l39 108q-137 78 -137 266q0 135 69.5 212t187.5 77q37 0 74 -9l30 84h50l-35 -97q118 -54 120 -175h-87zM357 473q-24 6 -47 6
q-80 0 -124 -53.5t-44 -155.5q0 -135 75 -189z" />
    <glyph glyph-name="sterling" unicode="&#xa3;" 
d="M123 -12l-48 68q121 95 121 179q0 32 -19 70h-107v56h77q-51 69 -51 142q0 80 64.5 138t164.5 58q104 0 165.5 -55t61.5 -149q0 -13 -1 -20h-89v8q0 66 -35.5 101t-101.5 35q-59 0 -96.5 -34.5t-37.5 -84.5q0 -10 2.5 -22t5 -20.5t9 -23t10 -22t13 -26t13.5 -25.5h159
v-56h-134q10 -35 10 -54q0 -80 -100 -173q48 24 114 24q35 0 86 -16.5t69 -16.5q35 0 82 29l40 -66q-61 -49 -124 -49q-38 0 -85 17l-46 18q-30 11 -67 11q-67 0 -125 -41z" />
    <glyph glyph-name="currency" unicode="&#xa4;" 
d="M164 432q0 -58 41 -99t99 -41t99.5 41t41.5 99t-41.5 99.5t-99.5 41.5t-99 -41.5t-41 -99.5zM60 224l93 92q-39 52 -39 116q0 62 39 115l-93 93l35 35l93 -93q50 40 116 40q64 0 116 -40l92 93l35 -35l-93 -93q39 -53 39 -115q0 -64 -39 -116l93 -92l-35 -35l-92 93
q-52 -40 -116 -40q-66 0 -116 40l-93 -93z" />
    <glyph glyph-name="yen" unicode="&#xa5;" 
d="M351 0h-90v269h-253v54h223l-34 54h-189v54h156l-156 248h111l187 -320l188 320h101l-150 -248h150v-54h-182l-34 -54h216v-54h-244v-269z" />
    <glyph glyph-name="brokenbar" unicode="&#xa6;" 
d="M271 -172v371h59v-371h-59zM271 329v370h59v-370h-59z" />
    <glyph glyph-name="section" unicode="&#xa7;" 
d="M125 42h84v-5q0 -39 24.5 -60.5t69.5 -21.5q39 0 62 18.5t23 50.5t-25 55t-85 56l-89 48q-99 53 -99 139q0 81 88 140q-45 38 -45 99q0 67 45.5 109.5t117.5 42.5q78 0 124 -41.5t46 -113.5v-6h-84q-1 40 -24.5 63.5t-61.5 23.5q-36 0 -56.5 -18.5t-20.5 -48.5
q0 -26 17.5 -45.5t55.5 -39.5l121 -65q51 -27 75 -61t24 -86q0 -42 -25.5 -80t-64.5 -54q50 -43 50 -107q0 -66 -49.5 -110.5t-127.5 -44.5q-76 0 -123 43.5t-47 117.5v2zM378 176q47 33 47 87q0 35 -20.5 56.5t-70.5 49.5l-109 62q-50 -34 -50 -83q0 -33 21 -55t70 -51z
" />
    <glyph glyph-name="dieresis" unicode="&#xa8;" 
d="M177 638v103h89v-103h-89zM338 638v103h89v-103h-89z" />
    <glyph glyph-name="copyright" unicode="&#xa9;" 
d="M375 500q7 11 26 11t24 -14t5 -57v-33q0 -18 -6.5 -25.5t-23.5 -7.5q-22 0 -29 21q-1 5 -4 18l-2 8q-4 16 -22 27.5t-43 11.5q-46 0 -73.5 -33.5t-27.5 -94.5q0 -56 29 -89.5t74 -33.5q32 0 67 21t38 21q29 0 29 -28q0 -23 -42.5 -48.5t-94.5 -25.5q-71 0 -119.5 51
t-48.5 129q0 80 48.5 133t121.5 53q35 0 74 -15zM12 335q0 120 84 204q85 85 205 85t204 -84q85 -85 85 -205q0 -119 -86 -205q-83 -85 -203 -85q-86 0 -159 48q-62 41 -96 104.5t-34 137.5zM301 576q-99 0 -170 -71q-71 -73 -71 -170q0 -98 72 -170q71 -71 169 -71
q99 0 170 71q71 73 71 170q0 100 -71 171q-72 70 -170 70z" />
    <glyph glyph-name="ordfeminine" unicode="&#xaa;" 
d="M137 260h335v-53h-335v53zM450 600v-183q0 -15 1 -21.5t7 -11t18 -4.5q9 0 17 1v-47q-21 -6 -39 -6q-64 0 -64 57q-64 -61 -139 -61q-60 0 -93.5 29.5t-33.5 79.5q0 56 37 82t117 35q81 8 91 14q15 7 15 38q0 57 -88 57q-93 0 -93 -68h-62v5q0 54 42 85.5t115 31.5
q79 0 115.5 -27t36.5 -86zM384 521q-18 -9 -37.5 -13t-47.5 -7t-37 -4q-38 -6 -55 -19.5t-17 -42.5q0 -57 72 -57q52 0 87 25t35 64v54z" />
    <glyph glyph-name="guillemotleft" unicode="&#xab;" 
d="M480 452v-94l-105 -89l105 -90v-94l-158 130v107zM279 452v-94l-104 -89l104 -90v-94l-157 130v107z" />
    <glyph glyph-name="logicalnot" unicode="&#xac;" 
d="M479 373h-392q-17 0 -27.5 10t-10.5 26q0 15 11 25t27 10h438q28 0 28 -19v-215q0 -17 -10.5 -28t-26.5 -11q-15 0 -26 11.5t-11 27.5v163z" />
    <glyph glyph-name="registered" unicode="&#xae;" 
d="M12 335q0 120 84 204q85 85 205 85t204 -84q85 -85 85 -205q0 -119 -86 -205q-83 -85 -203 -85q-86 0 -159 48q-62 41 -96 104.5t-34 137.5zM301 576q-99 0 -170 -71q-71 -73 -71 -170q0 -98 72 -170q71 -71 169 -71q99 0 170 71q71 73 71 170q0 100 -71 171
q-72 70 -170 70zM260 230h9q37 0 37 -27t-35 -27h-88q-27 0 -27 27q0 16 9 21.5t31 5.5h7v222h-7q-22 0 -31 5t-9 21q0 27 27 27h93q140 0 140 -99q0 -29 -16.5 -51.5t-44.5 -32.5q5 -4 12 -15l51 -77h4q34 0 34 -27t-27 -27h-29q-19 0 -35 25l-51 77q-15 22 -22 28t-23 6
h-9v-82zM260 452v-89h28q65 0 65 45q0 44 -64 44h-29z" />
    <glyph glyph-name="macron" unicode="&#xaf;" 
d="M170 655v69h264v-69h-264z" />
    <glyph glyph-name="degree" unicode="&#xb0;" 
d="M301 711q58 0 99.5 -41t41.5 -100q0 -57 -40.5 -98.5t-100.5 -41.5q-59 0 -100 41t-41 99q0 59 41.5 100t99.5 41zM301 665q-39 0 -67 -27.5t-28 -66.5q0 -40 27.5 -68t67.5 -28t67.5 28.5t27.5 67.5t-27.5 66.5t-67.5 27.5z" />
    <glyph glyph-name="plusminus" unicode="&#xb1;" 
d="M68 150h465v-69h-465v69zM266 218v173h-198v68h198v172h69v-172h198v-68h-198v-173h-69z" />
    <glyph glyph-name="twosuperior" unicode="&#xb2;" 
d="M120 194v3q0 71 36.5 120.5t118.5 92.5l53 29q67 36 67 96q0 39 -25 62.5t-67 23.5q-47 0 -73 -28t-26 -80v-6h-72v9q0 77 46 122t123 45q76 0 122.5 -39.5t46.5 -105.5q0 -50 -25.5 -85.5t-84.5 -67.5l-37 -20q-35 -19 -53.5 -30.5t-38.5 -31.5t-30 -44h269v-65h-350z
" />
    <glyph glyph-name="threesuperior" unicode="&#xb3;" 
d="M122 352h75v-10q0 -37 28 -64t73 -27q51 0 79.5 23.5t28.5 65.5q0 38 -27 60t-78 22q-4 0 -34 -2v60h11h22q88 0 88 71t-91 71q-43 0 -67 -24.5t-24 -69.5v-3h-72v5q0 72 45 113.5t125 41.5q74 0 117.5 -35.5t43.5 -94.5q0 -72 -66 -97q85 -26 85 -117q0 -68 -50 -110.5
t-137 -42.5q-80 0 -127.5 43.5t-47.5 116.5v4z" />
    <glyph glyph-name="acute" unicode="&#xb4;" 
d="M232 610l100 170h98l-139 -170h-59z" />
    <glyph glyph-name="mu" unicode="&#xb5;" 
d="M457 67h31q29 0 29 -28q0 -39 -44 -39h-77q-24 0 -24 15q0 1 2 9l10 35q-76 -70 -165 -70q-52 0 -82 30l-29 -163q-5 -31 -13.5 -43.5t-25.5 -12.5q-36 0 -36 28q0 15 6 42l106 514h-39q-30 0 -30 28q0 39 44 39h85q24 0 24 -15q0 -5 -1 -8l-57 -260q-7 -35 -7 -45
q0 -65 78 -65q60 0 109 38t60 94l46 227q4 20 12 27t31 7q33 0 33 -26q0 -6 -1 -9z" />
    <glyph glyph-name="paragraph" unicode="&#xb6;" 
d="M519 719v-43h-59v-676h-54v676h-86v-676h-55v379q-84 3 -133 49.5t-49 119.5q0 76 52 123.5t140 47.5h244z" />
    <glyph glyph-name="periodcentered" unicode="&#xb7;" 
d="M229 339q0 30 20.5 51.5t50.5 21.5t51.5 -22t21.5 -51q0 -30 -21 -51t-52 -21q-30 0 -50.5 20.5t-20.5 51.5z" />
    <glyph glyph-name="cedilla" unicode="&#xb8;" 
d="M194 -208v49q77 -19 121 -19q58 0 58 40q0 42 -61 42q-17 0 -30 -1v97h38v-50h14q109 0 109 -88q0 -44 -31.5 -68t-91.5 -24q-48 0 -126 22z" />
    <glyph glyph-name="onesuperior" unicode="&#xb9;" 
d="M285 194v349h-122v49q68 1 103 22.5t41 70.5h54v-491h-76z" />
    <glyph glyph-name="ordmasculine" unicode="&#xba;" 
d="M144 260h314v-53h-314v53zM301 713q83 0 129 -51t46 -144q0 -92 -46.5 -143.5t-128.5 -51.5q-81 0 -128 51.5t-47 143.5q0 93 46.5 144t128.5 51zM302 658q-53 0 -81.5 -36t-28.5 -104q0 -67 28.5 -103t81.5 -36q52 0 80 36t28 103q0 68 -28 104t-80 36z" />
    <glyph glyph-name="guillemotright" unicode="&#xbb;" 
d="M122 452l158 -130v-107l-158 -130v94l104 90l-104 89v94zM322 452l158 -130v-107l-158 -130v94l104 90l-104 89v94z" />
    <glyph glyph-name="onequarter" unicode="&#xbc;" 
d="M47 237l-11 57l530 129l13 -55zM194 393v296h-129v42q68 1 102.5 19.5t41.5 59.5h54v-417h-69zM437 -127v105h-197v54l204 256h61v-261h67v-49h-67v-105h-68zM299 27h138v179z" />
    <glyph glyph-name="onehalf" unicode="&#xbd;" 
d="M47 244l-11 56l530 129l13 -54zM194 393v296h-129v42q68 1 102.5 19.5t41.5 59.5h54v-417h-69zM267 -125v3q0 61 32.5 102.5t104.5 78.5l47 23q59 30 59 82q0 33 -23 53t-62 20t-61.5 -24t-22.5 -67v-5h-63v8q0 65 41 103.5t108 38.5t108 -34t41 -90q0 -43 -23 -73
t-75 -57l-32 -17q-49 -25 -74 -45t-33 -48h237v-52h-309z" />
    <glyph glyph-name="threequarters" unicode="&#xbe;" 
d="M47 237l-11 57l530 129l13 -55zM29 528h66q0 -2 0.5 -5t0.5 -4q0 -31 25 -54t68 -23q42 0 67 20.5t25 55.5q0 69 -95 69q-1 0 -4.5 -0.5t-10 -0.5h-13.5v52h29q78 0 78 63q0 26 -20.5 42t-56.5 16q-40 0 -61.5 -20t-21.5 -57v-7h-66v2q0 62 40 97.5t112 35.5
q66 0 104.5 -29.5t38.5 -80.5q0 -61 -59 -82q76 -21 76 -99q0 -58 -45 -94.5t-122 -36.5q-71 0 -113 37t-42 97v6zM437 -127v105h-197v54l204 256h61v-261h67v-49h-67v-105h-68zM299 27h138v179z" />
    <glyph glyph-name="questiondown" unicode="&#xbf;" 
d="M376 713v-149h-138v149h138zM350 506q0 -4 0.5 -12t0.5 -13q0 -89 -77 -160l-39 -35q-55 -51 -55 -106q0 -47 31 -74.5t85 -27.5q129 0 133 142h87v-12q0 -99 -58.5 -153.5t-165.5 -54.5q-94 0 -150 48.5t-56 126.5q0 84 74 149l41 36q35 31 49 55.5t14 67.5q0 15 -1 23
h87z" />
    <glyph glyph-name="Agrave" unicode="&#xc0;" 
d="M-3 0l253 695h102l254 -695h-94l-73 204h-277l-73 -204h-92zM194 289h214l-107 306zM372 767h-59l-139 170h98z" />
    <glyph glyph-name="Aacute" unicode="&#xc1;" 
d="M-3 0l253 695h102l254 -695h-94l-73 204h-277l-73 -204h-92zM194 289h214l-107 306zM232 767l100 170h98l-139 -170h-59z" />
    <glyph glyph-name="Acircumflex" unicode="&#xc2;" 
d="M-3 0l253 695h102l254 -695h-94l-73 204h-277l-73 -204h-92zM194 289h214l-107 306zM158 767l96 170h96l95 -170h-59l-84 111l-85 -111h-59z" />
    <glyph glyph-name="Atilde" unicode="&#xc3;" 
d="M-3 0l253 695h102l254 -695h-94l-73 204h-277l-73 -204h-92zM194 289h214l-107 306zM444 901q-20 -100 -95 -100q-14 0 -32 5l-47 13q-13 4 -24 4q-30 0 -44 -34h-43q9 48 33.5 74t60.5 26q17 0 29 -4l47 -14q15 -4 27 -4q32 0 45 34h43z" />
    <glyph glyph-name="Adieresis" unicode="&#xc4;" 
d="M-3 0l253 695h102l254 -695h-94l-73 204h-277l-73 -204h-92zM194 289h214l-107 306zM177 795v103h89v-103h-89zM338 795v103h89v-103h-89z" />
    <glyph glyph-name="Aring" unicode="&#xc5;" 
d="M-3 0l253 695h102l254 -695h-94l-73 204h-277l-73 -204h-92zM194 289h214l-107 306zM179 840q0 51 35.5 87t87.5 36t87.5 -35.5t35.5 -87.5t-35.5 -88t-87.5 -36t-87.5 36t-35.5 88zM236 840q0 -28 19 -47t47 -19q27 0 46.5 19t19.5 47q0 27 -19.5 46.5t-46.5 19.5
q-28 0 -47 -19.5t-19 -46.5z" />
    <glyph glyph-name="AE" unicode="&#xc6;" 
d="M106 208l-73 -208h-86l238 695h430v-86h-252v-208h226v-81h-226v-233h255v-87h-349v208h-163zM134 289h135v326h-23z" />
    <glyph glyph-name="Ccedilla" unicode="&#xc7;" 
d="M463 258h96q-13 -131 -80 -204t-169 -73q-119 0 -188 96.5t-69 269.5q0 174 69 270t188 96q93 0 157.5 -61t80.5 -167h-95q-16 70 -53.5 107.5t-89.5 37.5q-73 0 -117 -74t-44 -209t44 -208.5t117 -73.5q60 0 101 50t52 143zM194 -208v49q77 -19 121 -19q58 0 58 40
q0 42 -61 42q-17 0 -30 -1v97h38v-50h14q109 0 109 -88q0 -44 -31.5 -68t-91.5 -24q-48 0 -126 22z" />
    <glyph glyph-name="Egrave" unicode="&#xc8;" 
d="M91 0v694h432v-84h-340v-208h310v-83h-310v-235h348v-84h-440zM372 767h-59l-139 170h98z" />
    <glyph glyph-name="Eacute" unicode="&#xc9;" 
d="M91 0v694h432v-84h-340v-208h310v-83h-310v-235h348v-84h-440zM232 767l100 170h98l-139 -170h-59z" />
    <glyph glyph-name="Ecircumflex" unicode="&#xca;" 
d="M91 0v694h432v-84h-340v-208h310v-83h-310v-235h348v-84h-440zM158 767l96 170h96l95 -170h-59l-84 111l-85 -111h-59z" />
    <glyph glyph-name="Edieresis" unicode="&#xcb;" 
d="M91 0v694h432v-84h-340v-208h310v-83h-310v-235h348v-84h-440zM177 795v103h89v-103h-89zM338 795v103h89v-103h-89z" />
    <glyph glyph-name="Igrave" unicode="&#xcc;" 
d="M255 84v526h-128v84h348v-84h-128v-526h128v-84h-348v84h128zM372 767h-59l-139 170h98z" />
    <glyph glyph-name="Iacute" unicode="&#xcd;" 
d="M255 84v526h-128v84h348v-84h-128v-526h128v-84h-348v84h128zM232 767l100 170h98l-139 -170h-59z" />
    <glyph glyph-name="Icircumflex" unicode="&#xce;" 
d="M255 84v526h-128v84h348v-84h-128v-526h128v-84h-348v84h128zM158 767l96 170h96l95 -170h-59l-84 111l-85 -111h-59z" />
    <glyph glyph-name="Idieresis" unicode="&#xcf;" 
d="M255 84v526h-128v84h348v-84h-128v-526h128v-84h-348v84h128zM177 795v103h89v-103h-89zM338 795v103h89v-103h-89z" />
    <glyph glyph-name="Eth" unicode="&#xd0;" 
d="M0 336v68h69v290h231q123 0 190.5 -91t67.5 -256q0 -163 -68.5 -255t-189.5 -92h-231v336h-69zM312 336h-150v-253h131q83 0 126 68t43 196q0 264 -169 264h-131v-207h150v-68z" />
    <glyph glyph-name="Ntilde" unicode="&#xd1;" 
d="M73 0v694h109l263 -569v569h84v-694h-107l-266 569v-569h-83zM444 901q-20 -100 -95 -100q-14 0 -32 5l-47 13q-13 4 -24 4q-30 0 -44 -34h-43q9 48 33.5 74t60.5 26q17 0 29 -4l47 -14q15 -4 27 -4q32 0 45 34h43z" />
    <glyph glyph-name="Ograve" unicode="&#xd2;" 
d="M44 347q0 174 69 270t188 96t188 -96.5t69 -269.5t-69 -269.5t-188 -96.5t-188 96.5t-69 269.5zM140 347q0 -134 44 -208t117 -74t117 74t44 208t-44 208.5t-117 74.5t-117 -74t-44 -209zM372 767h-59l-139 170h98z" />
    <glyph glyph-name="Oacute" unicode="&#xd3;" 
d="M44 347q0 174 69 270t188 96t188 -96.5t69 -269.5t-69 -269.5t-188 -96.5t-188 96.5t-69 269.5zM140 347q0 -134 44 -208t117 -74t117 74t44 208t-44 208.5t-117 74.5t-117 -74t-44 -209zM232 767l100 170h98l-139 -170h-59z" />
    <glyph glyph-name="Ocircumflex" unicode="&#xd4;" 
d="M44 347q0 174 69 270t188 96t188 -96.5t69 -269.5t-69 -269.5t-188 -96.5t-188 96.5t-69 269.5zM140 347q0 -134 44 -208t117 -74t117 74t44 208t-44 208.5t-117 74.5t-117 -74t-44 -209zM158 767l96 170h96l95 -170h-59l-84 111l-85 -111h-59z" />
    <glyph glyph-name="Otilde" unicode="&#xd5;" 
d="M44 347q0 174 69 270t188 96t188 -96.5t69 -269.5t-69 -269.5t-188 -96.5t-188 96.5t-69 269.5zM140 347q0 -134 44 -208t117 -74t117 74t44 208t-44 208.5t-117 74.5t-117 -74t-44 -209zM444 901q-20 -100 -95 -100q-14 0 -32 5l-47 13q-13 4 -24 4q-30 0 -44 -34h-43
q9 48 33.5 74t60.5 26q17 0 29 -4l47 -14q15 -4 27 -4q32 0 45 34h43z" />
    <glyph glyph-name="Odieresis" unicode="&#xd6;" 
d="M44 347q0 174 69 270t188 96t188 -96.5t69 -269.5t-69 -269.5t-188 -96.5t-188 96.5t-69 269.5zM140 347q0 -134 44 -208t117 -74t117 74t44 208t-44 208.5t-117 74.5t-117 -74t-44 -209zM177 795v103h89v-103h-89zM338 795v103h89v-103h-89z" />
    <glyph glyph-name="multiply" unicode="&#xd7;" 
d="M300 368l125 125q13 13 27 13q15 0 25.5 -10.5t10.5 -25.5q0 -14 -13 -27l-125 -125l129 -130q13 -13 13 -27q0 -15 -10 -25.5t-25 -10.5q-17 0 -29 12l-129 129l-125 -124q-13 -13 -28 -13t-24.5 9.5t-9.5 24.5q0 17 12 29l124 125l-129 130q-13 13 -13 29q0 14 11 24.5
t25 10.5q15 0 28 -13z" />
    <glyph glyph-name="Oslash" unicode="&#xd8;" 
d="M79 -22l-52 36l66 94q-49 98 -49 239q0 174 69 270t188 96q106 0 166 -74l53 79l55 -33l-69 -100q52 -95 52 -230q0 -179 -69 -276.5t-188 -97.5q-98 0 -168 73zM411 561q-35 69 -110 69q-74 0 -117.5 -74t-43.5 -209q0 -83 19 -150zM188 134q41 -69 113 -69
q74 0 117.5 75t43.5 212q0 77 -20 143z" />
    <glyph glyph-name="Ugrave" unicode="&#xd9;" 
d="M62 264v430h92v-435q0 -98 36 -146t111 -48q146 0 146 194v435h93v-430q0 -144 -58.5 -213.5t-180.5 -69.5t-180.5 69.5t-58.5 213.5zM372 767h-59l-139 170h98z" />
    <glyph glyph-name="Uacute" unicode="&#xda;" 
d="M62 264v430h92v-435q0 -98 36 -146t111 -48q146 0 146 194v435h93v-430q0 -144 -58.5 -213.5t-180.5 -69.5t-180.5 69.5t-58.5 213.5zM232 767l100 170h98l-139 -170h-59z" />
    <glyph glyph-name="Ucircumflex" unicode="&#xdb;" 
d="M62 264v430h92v-435q0 -98 36 -146t111 -48q146 0 146 194v435h93v-430q0 -144 -58.5 -213.5t-180.5 -69.5t-180.5 69.5t-58.5 213.5zM158 767l96 170h96l95 -170h-59l-84 111l-85 -111h-59z" />
    <glyph glyph-name="Udieresis" unicode="&#xdc;" 
d="M62 264v430h92v-435q0 -98 36 -146t111 -48q146 0 146 194v435h93v-430q0 -144 -58.5 -213.5t-180.5 -69.5t-180.5 69.5t-58.5 213.5zM177 795v103h89v-103h-89zM338 795v103h89v-103h-89z" />
    <glyph glyph-name="Yacute" unicode="&#xdd;" 
d="M353 0h-93v275l-238 420h111l173 -329l171 329h104l-228 -414v-281zM232 767l100 170h98l-139 -170h-59z" />
    <glyph glyph-name="Thorn" unicode="&#xde;" 
d="M182 0h-92v694h92v-133h96h52q103 0 156.5 -51.5t53.5 -149.5q0 -119 -88 -173q-31 -18 -67.5 -23t-100.5 -5h-102v-159zM305 476h-123v-232h116q76 0 111 24.5t35 91.5q0 64 -33.5 90t-105.5 26z" />
    <glyph glyph-name="germandbls" unicode="&#xdf;" 
d="M100 0v512q0 107 52 162t151 55q89 0 143 -50t54 -131q0 -110 -78 -147q51 -16 80.5 -63t29.5 -111q0 -109 -61 -176.5t-153 -67.5q-21 0 -58 7v82q22 -6 41 -6q60 0 100 41t40 110q0 136 -160 136h-15v73h15q64 0 97.5 29.5t33.5 84.5q0 52 -30 82t-80 30
q-61 0 -88.5 -37.5t-27.5 -115.5v-499h-86z" />
    <glyph glyph-name="agrave" unicode="&#xe0;" 
d="M413 70q-76 -86 -176 -86q-76 0 -118 42t-42 115q0 85 45.5 123.5t148.5 50.5q98 11 110 16q21 8 24 37q1 9 1 28q0 82 -112 82q-116 0 -116 -97h-79v6q0 78 52.5 123.5t145.5 45.5q100 0 147 -40t47 -122v-278q0 -29 6 -41t27 -12q6 0 21 3v-68q-27 -8 -49 -8
q-83 0 -83 77v3zM403 188v85q-20 -11 -42.5 -17t-62 -11.5t-49.5 -7.5q-45 -8 -64.5 -28t-19.5 -60q0 -88 87 -88q65 0 108 35.5t43 91.5zM372 610h-59l-139 170h98z" />
    <glyph glyph-name="aacute" unicode="&#xe1;" 
d="M413 70q-76 -86 -176 -86q-76 0 -118 42t-42 115q0 85 45.5 123.5t148.5 50.5q98 11 110 16q21 8 24 37q1 9 1 28q0 82 -112 82q-116 0 -116 -97h-79v6q0 78 52.5 123.5t145.5 45.5q100 0 147 -40t47 -122v-278q0 -29 6 -41t27 -12q6 0 21 3v-68q-27 -8 -49 -8
q-83 0 -83 77v3zM403 188v85q-20 -11 -42.5 -17t-62 -11.5t-49.5 -7.5q-45 -8 -64.5 -28t-19.5 -60q0 -88 87 -88q65 0 108 35.5t43 91.5zM232 610l100 170h98l-139 -170h-59z" />
    <glyph glyph-name="acircumflex" unicode="&#xe2;" 
d="M413 70q-76 -86 -176 -86q-76 0 -118 42t-42 115q0 85 45.5 123.5t148.5 50.5q98 11 110 16q21 8 24 37q1 9 1 28q0 82 -112 82q-116 0 -116 -97h-79v6q0 78 52.5 123.5t145.5 45.5q100 0 147 -40t47 -122v-278q0 -29 6 -41t27 -12q6 0 21 3v-68q-27 -8 -49 -8
q-83 0 -83 77v3zM403 188v85q-20 -11 -42.5 -17t-62 -11.5t-49.5 -7.5q-45 -8 -64.5 -28t-19.5 -60q0 -88 87 -88q65 0 108 35.5t43 91.5zM158 610l96 170h96l95 -170h-59l-84 111l-85 -111h-59z" />
    <glyph glyph-name="atilde" unicode="&#xe3;" 
d="M413 70q-76 -86 -176 -86q-76 0 -118 42t-42 115q0 85 45.5 123.5t148.5 50.5q98 11 110 16q21 8 24 37q1 9 1 28q0 82 -112 82q-116 0 -116 -97h-79v6q0 78 52.5 123.5t145.5 45.5q100 0 147 -40t47 -122v-278q0 -29 6 -41t27 -12q6 0 21 3v-68q-27 -8 -49 -8
q-83 0 -83 77v3zM403 188v85q-20 -11 -42.5 -17t-62 -11.5t-49.5 -7.5q-45 -8 -64.5 -28t-19.5 -60q0 -88 87 -88q65 0 108 35.5t43 91.5zM444 744q-20 -100 -95 -100q-14 0 -32 5l-47 13q-13 4 -24 4q-30 0 -44 -34h-43q9 48 33.5 74t60.5 26q17 0 29 -4l47 -14
q15 -4 27 -4q32 0 45 34h43z" />
    <glyph glyph-name="adieresis" unicode="&#xe4;" 
d="M413 70q-76 -86 -176 -86q-76 0 -118 42t-42 115q0 85 45.5 123.5t148.5 50.5q98 11 110 16q21 8 24 37q1 9 1 28q0 82 -112 82q-116 0 -116 -97h-79v6q0 78 52.5 123.5t145.5 45.5q100 0 147 -40t47 -122v-278q0 -29 6 -41t27 -12q6 0 21 3v-68q-27 -8 -49 -8
q-83 0 -83 77v3zM403 188v85q-20 -11 -42.5 -17t-62 -11.5t-49.5 -7.5q-45 -8 -64.5 -28t-19.5 -60q0 -88 87 -88q65 0 108 35.5t43 91.5zM177 638v103h89v-103h-89zM338 638v103h89v-103h-89z" />
    <glyph glyph-name="aring" unicode="&#xe5;" 
d="M413 70q-76 -86 -176 -86q-76 0 -118 42t-42 115q0 85 45.5 123.5t148.5 50.5q98 11 110 16q21 8 24 37q1 9 1 28q0 82 -112 82q-116 0 -116 -97h-79v6q0 78 52.5 123.5t145.5 45.5q100 0 147 -40t47 -122v-278q0 -29 6 -41t27 -12q6 0 21 3v-68q-27 -8 -49 -8
q-83 0 -83 77v3zM403 188v85q-20 -11 -42.5 -17t-62 -11.5t-49.5 -7.5q-45 -8 -64.5 -28t-19.5 -60q0 -88 87 -88q65 0 108 35.5t43 91.5zM179 724q0 51 35.5 87t87.5 36t87.5 -35.5t35.5 -87.5t-35.5 -88t-87.5 -36t-87.5 36t-35.5 88zM236 724q0 -28 19 -47t47 -19
q27 0 46.5 19t19.5 47q0 27 -19.5 46.5t-46.5 19.5q-28 0 -47 -19.5t-19 -46.5z" />
    <glyph glyph-name="ae" unicode="&#xe6;" 
d="M304 489q50 67 122 67q83 0 131 -71.5t48 -201.5q0 -26 -1 -40h-271q0 -87 27 -135t72 -48q31 0 54.5 25t30.5 69h80q-13 -83 -59 -128t-114 -45q-48 0 -86 30t-60 86q-56 -116 -155 -116q-62 0 -96.5 42.5t-34.5 117.5q0 85 36 123.5t119 50.5q80 12 91 18q16 9 18 43
v24q0 38 -22.5 58.5t-62.5 20.5q-41 0 -65 -25t-24 -70v-3h-72v7q0 78 42.5 123t115.5 45q104 0 136 -67zM333 317h187q0 79 -24.5 120.5t-69.5 41.5q-41 0 -66 -42t-27 -120zM243 188v85q-15 -12 -33 -18t-41.5 -10.5t-34.5 -7.5q-62 -20 -62 -88q0 -89 62 -89
q45 0 77 35.5t32 92.5z" />
    <glyph glyph-name="ccedilla" unicode="&#xe7;" 
d="M436 359q-3 57 -36.5 88.5t-91.5 31.5q-66 0 -103.5 -54t-37.5 -155q0 -103 36 -156.5t105 -53.5q54 0 89.5 35t42.5 97h84q-6 -97 -65.5 -154t-153.5 -57q-108 0 -168 75.5t-60 210.5q0 136 62 212.5t169 76.5q96 0 154 -53.5t61 -143.5h-87zM194 -208v49
q77 -19 121 -19q58 0 58 40q0 42 -61 42q-17 0 -30 -1v97h38v-50h14q109 0 109 -88q0 -44 -31.5 -68t-91.5 -24q-48 0 -126 22z" />
    <glyph glyph-name="egrave" unicode="&#xe8;" 
d="M171 243v-3q0 -85 37.5 -132.5t100.5 -47.5q44 0 75 24.5t43 69.5h87q-15 -79 -73.5 -126t-142.5 -47q-100 0 -159.5 76.5t-59.5 211.5q0 133 61 210t161 77q104 0 163.5 -71.5t59.5 -200.5q0 -27 -1 -41h-352zM171 317h261q0 77 -34 119.5t-94 42.5t-94.5 -42
t-38.5 -120zM372 610h-59l-139 170h98z" />
    <glyph glyph-name="eacute" unicode="&#xe9;" 
d="M171 243v-3q0 -85 37.5 -132.5t100.5 -47.5q44 0 75 24.5t43 69.5h87q-15 -79 -73.5 -126t-142.5 -47q-100 0 -159.5 76.5t-59.5 211.5q0 133 61 210t161 77q104 0 163.5 -71.5t59.5 -200.5q0 -27 -1 -41h-352zM171 317h261q0 77 -34 119.5t-94 42.5t-94.5 -42
t-38.5 -120zM232 610l100 170h98l-139 -170h-59z" />
    <glyph glyph-name="ecircumflex" unicode="&#xea;" 
d="M171 243v-3q0 -85 37.5 -132.5t100.5 -47.5q44 0 75 24.5t43 69.5h87q-15 -79 -73.5 -126t-142.5 -47q-100 0 -159.5 76.5t-59.5 211.5q0 133 61 210t161 77q104 0 163.5 -71.5t59.5 -200.5q0 -27 -1 -41h-352zM171 317h261q0 77 -34 119.5t-94 42.5t-94.5 -42
t-38.5 -120zM158 610l96 170h96l95 -170h-59l-84 111l-85 -111h-59z" />
    <glyph glyph-name="edieresis" unicode="&#xeb;" 
d="M171 243v-3q0 -85 37.5 -132.5t100.5 -47.5q44 0 75 24.5t43 69.5h87q-15 -79 -73.5 -126t-142.5 -47q-100 0 -159.5 76.5t-59.5 211.5q0 133 61 210t161 77q104 0 163.5 -71.5t59.5 -200.5q0 -27 -1 -41h-352zM171 317h261q0 77 -34 119.5t-94 42.5t-94.5 -42
t-38.5 -120zM177 638v103h89v-103h-89zM338 638v103h89v-103h-89z" />
    <glyph glyph-name="igrave" unicode="&#xec;" 
d="M363 74h182v-74h-450v74h180v370h-138v75h226v-445zM372 610h-59l-139 170h98z" />
    <glyph glyph-name="iacute" unicode="&#xed;" 
d="M363 74h182v-74h-450v74h180v370h-138v75h226v-445zM232 610l100 170h98l-139 -170h-59z" />
    <glyph glyph-name="icircumflex" unicode="&#xee;" 
d="M363 74h182v-74h-450v74h180v370h-138v75h226v-445zM158 610l96 170h96l95 -170h-59l-84 111l-85 -111h-59z" />
    <glyph glyph-name="idieresis" unicode="&#xef;" 
d="M363 74h182v-74h-450v74h180v370h-138v75h226v-445zM177 638v103h89v-103h-89zM338 638v103h89v-103h-89z" />
    <glyph glyph-name="eth" unicode="&#xf0;" 
d="M158 247q0 -94 37.5 -144t105.5 -50t105.5 50t37.5 144t-37.5 144.5t-105.5 50.5q-69 0 -106 -50t-37 -145zM391 496q-16 46 -58 99l-121 -44l-17 47l106 37q-23 29 -61 52l38 49q48 -27 90 -69l119 44l18 -48l-102 -38q132 -165 132 -378q0 -124 -62 -195t-172 -71
t-171.5 70t-61.5 196t62 196t171 70q52 0 90 -17z" />
    <glyph glyph-name="ntilde" unicode="&#xf1;" 
d="M94 0v537h84v-82q53 101 160 101q109 0 151 -73q22 -38 22 -130v-27v-326h-88v335q0 74 -21 108t-77 34q-67 0 -105 -43.5t-38 -123.5v-310h-88zM444 744q-20 -100 -95 -100q-14 0 -32 5l-47 13q-13 4 -24 4q-30 0 -44 -34h-43q9 48 33.5 74t60.5 26q17 0 29 -4l47 -14
q15 -4 27 -4q32 0 45 34h43z" />
    <glyph glyph-name="ograve" unicode="&#xf2;" 
d="M68 268q0 137 62 212.5t171 75.5t171 -75.5t62 -212.5q0 -136 -62 -211.5t-171 -75.5t-171 75.5t-62 211.5zM158 269q0 -102 37.5 -156t105.5 -54t105.5 54t37.5 156t-37.5 155.5t-105.5 53.5q-69 0 -106 -53.5t-37 -155.5zM372 610h-59l-139 170h98z" />
    <glyph glyph-name="oacute" unicode="&#xf3;" 
d="M68 268q0 137 62 212.5t171 75.5t171 -75.5t62 -212.5q0 -136 -62 -211.5t-171 -75.5t-171 75.5t-62 211.5zM158 269q0 -102 37.5 -156t105.5 -54t105.5 54t37.5 156t-37.5 155.5t-105.5 53.5q-69 0 -106 -53.5t-37 -155.5zM232 610l100 170h98l-139 -170h-59z" />
    <glyph glyph-name="ocircumflex" unicode="&#xf4;" 
d="M68 268q0 137 62 212.5t171 75.5t171 -75.5t62 -212.5q0 -136 -62 -211.5t-171 -75.5t-171 75.5t-62 211.5zM158 269q0 -102 37.5 -156t105.5 -54t105.5 54t37.5 156t-37.5 155.5t-105.5 53.5q-69 0 -106 -53.5t-37 -155.5zM158 610l96 170h96l95 -170h-59l-84 111
l-85 -111h-59z" />
    <glyph glyph-name="otilde" unicode="&#xf5;" 
d="M68 268q0 137 62 212.5t171 75.5t171 -75.5t62 -212.5q0 -136 -62 -211.5t-171 -75.5t-171 75.5t-62 211.5zM158 269q0 -102 37.5 -156t105.5 -54t105.5 54t37.5 156t-37.5 155.5t-105.5 53.5q-69 0 -106 -53.5t-37 -155.5zM444 744q-20 -100 -95 -100q-14 0 -32 5
l-47 13q-13 4 -24 4q-30 0 -44 -34h-43q9 48 33.5 74t60.5 26q17 0 29 -4l47 -14q15 -4 27 -4q32 0 45 34h43z" />
    <glyph glyph-name="odieresis" unicode="&#xf6;" 
d="M68 268q0 137 62 212.5t171 75.5t171 -75.5t62 -212.5q0 -136 -62 -211.5t-171 -75.5t-171 75.5t-62 211.5zM158 269q0 -102 37.5 -156t105.5 -54t105.5 54t37.5 156t-37.5 155.5t-105.5 53.5q-69 0 -106 -53.5t-37 -155.5zM177 638v103h89v-103h-89zM338 638v103h89
v-103h-89z" />
    <glyph glyph-name="divide" unicode="&#xf7;" 
d="M301 516q22 0 38 -16.5t16 -38.5t-16 -38.5t-38 -16.5t-38 16t-16 39t16 39t38 16zM82 344h437q31 0 31 -36t-31 -36h-437q-31 0 -31 36t31 36zM301 209q22 0 38 -16t16 -39q0 -22 -15.5 -38t-38.5 -16t-38.5 16t-15.5 38q0 23 16 39t38 16z" />
    <glyph glyph-name="oslash" unicode="&#xf8;" 
d="M149 43l-62 -73l-38 39l63 77q-44 69 -44 182q0 137 62 212.5t171 75.5q102 0 153 -61l55 65l41 -35l-60 -73q44 -61 44 -184q0 -137 -61.5 -212t-171.5 -75q-93 0 -152 62zM202 108q33 -49 99 -49q143 0 143 223q0 60 -18 95zM400 430q-34 48 -99 48q-68 0 -105.5 -53.5
t-37.5 -155.5q0 -62 14 -110z" />
    <glyph glyph-name="ugrave" unicode="&#xf9;" 
d="M508 537v-537h-84v82q-53 -101 -160 -101q-109 0 -151 73q-22 38 -22 130v27v326h88v-335v-10q0 -68 22.5 -99.5t75.5 -31.5q67 0 105 43t38 123v310h88zM372 610h-59l-139 170h98z" />
    <glyph glyph-name="uacute" unicode="&#xfa;" 
d="M508 537v-537h-84v82q-53 -101 -160 -101q-109 0 -151 73q-22 38 -22 130v27v326h88v-335v-10q0 -68 22.5 -99.5t75.5 -31.5q67 0 105 43t38 123v310h88zM232 610l100 170h98l-139 -170h-59z" />
    <glyph glyph-name="ucircumflex" unicode="&#xfb;" 
d="M508 537v-537h-84v82q-53 -101 -160 -101q-109 0 -151 73q-22 38 -22 130v27v326h88v-335v-10q0 -68 22.5 -99.5t75.5 -31.5q67 0 105 43t38 123v310h88zM158 610l96 170h96l95 -170h-59l-84 111l-85 -111h-59z" />
    <glyph glyph-name="udieresis" unicode="&#xfc;" 
d="M508 537v-537h-84v82q-53 -101 -160 -101q-109 0 -151 73q-22 38 -22 130v27v326h88v-335v-10q0 -68 22.5 -99.5t75.5 -31.5q67 0 105 43t38 123v310h88zM177 638v103h89v-103h-89zM338 638v103h89v-103h-89z" />
    <glyph glyph-name="yacute" unicode="&#xfd;" 
d="M455 537h94l-218 -606q-28 -79 -60 -109t-102 -30q-53 0 -85 8v85q50 -10 81 -10q58 0 75 45l18 50l-204 567h96l151 -442zM232 610l100 170h98l-139 -170h-59z" />
    <glyph glyph-name="thorn" unicode="&#xfe;" 
d="M313 60q64 0 100.5 54.5t36.5 154.5q0 99 -36.5 153.5t-97.5 54.5q-67 0 -102.5 -53t-35.5 -155q0 -101 35.5 -155t99.5 -54zM177 454q30 54 66 78t88 24q94 0 151.5 -76.5t57.5 -210.5t-57.5 -211t-151.5 -77q-51 0 -87 23.5t-67 77.5v-290h-88v926h88v-264z" />
    <glyph glyph-name="ydieresis" unicode="&#xff;" 
d="M455 537h94l-218 -606q-28 -79 -60 -109t-102 -30q-53 0 -85 8v85q50 -10 81 -10q58 0 75 45l18 50l-204 567h96l151 -442zM177 638v103h89v-103h-89zM338 638v103h89v-103h-89z" />
    <glyph glyph-name="dotlessi" unicode="&#x131;" 
d="M363 74h182v-74h-450v74h180v370h-138v75h226v-445z" />
    <glyph glyph-name="Lslash" unicode="&#x141;" 
d="M96 0v289l-71 -53l-38 51l109 81v326h92v-263l181 129l39 -51l-220 -159v-266h354v-84h-446z" />
    <glyph glyph-name="lslash" unicode="&#x142;" 
d="M269 298l-110 -78l-41 57l151 105v262h-138v74h226v-277l99 69l43 -56l-142 -96v-284h180v-74h-449v74h181v224z" />
    <glyph glyph-name="OE" unicode="&#x152;" 
d="M303 562q-37 73 -90 73q-115 0 -115 -281q0 -290 116 -290q31 0 50.5 17.5t38.5 59.5v421zM324 0v34q-39 -51 -113 -51q-97 0 -152 96t-55 275q0 174 53 267.5t147 93.5q88 0 120 -53v32h310v-85h-237v-206h212v-84h-212v-233h237v-86h-310z" />
    <glyph glyph-name="oe" unicode="&#x153;" 
d="M304 63q-48 -82 -141 -82q-87 0 -137 75.5t-50 211.5t50 212t137 76q84 0 139 -79q65 79 140 79q83 0 131 -71.5t48 -201.5q0 -26 -1 -40h-271q0 -87 27 -135.5t72 -48.5q31 0 53.5 24.5t31.5 70.5h80q-13 -82 -59.5 -127.5t-114.5 -45.5q-76 0 -135 82zM349 317h187
q0 79 -24.5 120t-69.5 41q-41 0 -66 -41.5t-27 -119.5zM59 269q0 -101 27.5 -155.5t75.5 -54.5q49 0 76 54t27 156q0 103 -27 156t-76 53t-76 -53.5t-27 -155.5z" />
    <glyph glyph-name="Scaron" unicode="&#x160;" 
d="M143 229q0 -76 44.5 -120t119.5 -44q68 0 109.5 34t41.5 92q0 19 -3.5 33t-14 25.5t-18.5 18.5t-30 15t-33.5 11.5t-44 12t-48.5 13.5q-52 14 -82.5 27t-58.5 33.5t-40 51t-12 74.5q0 92 61.5 149t159.5 57q113 0 175 -58.5t62 -164.5v-2h-91q-5 69 -42.5 106t-100.5 37
q-60 0 -95 -30t-35 -80q0 -57 33 -78.5t134 -44.5q117 -27 166.5 -65.5t49.5 -130.5q0 -100 -66.5 -160t-180.5 -60q-115 0 -180.5 64.5t-70.5 183.5h91zM158 937h59l85 -111l84 111h59l-95 -170h-96z" />
    <glyph glyph-name="scaron" unicode="&#x161;" 
d="M357 313q85 -20 123 -52.5t38 -102.5q0 -82 -57.5 -129.5t-162.5 -47.5q-100 0 -154 48t-56 138h85q9 -108 133 -108q58 0 91 24.5t33 64.5q0 34 -19 49t-63 26l-98 24q-80 20 -115 53.5t-35 99.5q0 70 52 113t146 43q93 0 148.5 -44t55.5 -116v-2h-86q-2 41 -33.5 64
t-84.5 23q-110 0 -110 -78q0 -30 19.5 -44.5t64.5 -25.5zM158 780h59l85 -111l84 111h59l-95 -170h-96z" />
    <glyph glyph-name="Ydieresis" unicode="&#x178;" 
d="M353 0h-93v275l-238 420h111l173 -329l171 329h104l-228 -414v-281zM177 795v103h89v-103h-89zM338 795v103h89v-103h-89z" />
    <glyph glyph-name="Zcaron" unicode="&#x17d;" 
d="M52 0v80l394 530h-367v84h471v-79l-388 -531h388v-84h-498zM158 937h59l85 -111l84 111h59l-95 -170h-96z" />
    <glyph glyph-name="zcaron" unicode="&#x17e;" 
d="M400 463h-298v74h406v-68l-310 -395h324v-74h-435v67zM158 780h59l85 -111l84 111h59l-95 -170h-96z" />
    <glyph glyph-name="florin" unicode="&#x192;" 
d="M12 -184l23 78q29 -18 59 -18q39 0 56.5 33t32.5 119l67 363h-103v72h118q27 149 66 212t118 63q43 0 87 -22l-23 -74q-34 16 -56 16q-43 0 -61.5 -41.5t-36.5 -153.5h112v-72h-125l-60 -322q-28 -149 -66.5 -212.5t-120.5 -63.5q-44 0 -87 23z" />
    <glyph glyph-name="circumflex" unicode="&#x2c6;" 
d="M158 610l96 170h96l95 -170h-59l-84 111l-85 -111h-59z" />
    <glyph glyph-name="caron" unicode="&#x2c7;" 
d="M158 780h59l85 -111l84 111h59l-95 -170h-96z" />
    <glyph glyph-name="breve" unicode="&#x2d8;" 
d="M159 763h53q3 -36 24.5 -52t65.5 -16q85 0 89 68h53q-5 -71 -39 -103.5t-103 -32.5q-68 0 -103 33t-40 103z" />
    <glyph glyph-name="dotaccent" unicode="&#x2d9;" 
d="M255 636v107h94v-107h-94z" />
    <glyph glyph-name="ring" unicode="&#x2da;" 
d="M179 724q0 51 35.5 87t87.5 36t87.5 -35.5t35.5 -87.5t-35.5 -88t-87.5 -36t-87.5 36t-35.5 88zM236 724q0 -28 19 -47t47 -19q27 0 46.5 19t19.5 47q0 27 -19.5 46.5t-46.5 19.5q-28 0 -47 -19.5t-19 -46.5z" />
    <glyph glyph-name="ogonek" unicode="&#x2db;" 
d="M353 0q-66 -58 -66 -108q0 -21 10.5 -29.5t36.5 -8.5h41v-70h-42q-110 0 -110 82q0 34 22 64.5t69 69.5h39z" />
    <glyph glyph-name="tilde" unicode="&#x2dc;" 
d="M444 744q-20 -100 -95 -100q-14 0 -32 5l-47 13q-13 4 -24 4q-30 0 -44 -34h-43q9 48 33.5 74t60.5 26q17 0 29 -4l47 -14q15 -4 27 -4q32 0 45 34h43z" />
    <glyph glyph-name="hungarumlaut" unicode="&#x2dd;" 
d="M204 610l67 170h86l-106 -170h-47zM330 610l81 170h86l-120 -170h-47z" />
    <glyph glyph-name="endash" unicode="&#x2013;" 
d="M0 234v69h602v-69h-602z" />
    <glyph glyph-name="emdash" unicode="&#x2014;" 
d="M0 234v69h602v-69h-602z" />
    <glyph glyph-name="quoteleft" unicode="&#x2018;" 
d="M358 546v-125h-115v133q0 151 134 159v-56q-41 -5 -58 -27t-17 -69v-15h56z" />
    <glyph glyph-name="quoteright" unicode="&#x2019;" 
d="M244 570v124h115v-133q0 -150 -134 -158v56q41 5 58 26.5t17 68.5v16h-56z" />
    <glyph glyph-name="quotesinglbase" unicode="&#x201a;" 
d="M253 0v124h115v-133q0 -151 -134 -159v57q41 5 58 26.5t17 68.5v16h-56z" />
    <glyph glyph-name="quotedblleft" unicode="&#x201c;" 
d="M254 546v-125h-114v133q0 151 134 159v-56q-41 -5 -58.5 -27t-17.5 -69v-15h56zM461 546v-125h-115v133q0 151 134 159v-56q-41 -5 -58 -27t-17 -69v-15h56z" />
    <glyph glyph-name="quotedblright" unicode="&#x201d;" 
d="M358 570v124h115v-133q0 -150 -134 -158v56q41 5 58 26.5t17 68.5v16h-56zM151 570v124h115v-133q0 -150 -134 -158v56q41 5 58 26.5t17 68.5v16h-56z" />
    <glyph glyph-name="quotedblbase" unicode="&#x201e;" 
d="M353 0v124h115v-133q0 -151 -134 -159v57q41 5 58 26.5t17 68.5v16h-56zM147 0v124h114v-133q0 -151 -134 -159v57q41 5 58.5 27t17.5 68v16h-56z" />
    <glyph glyph-name="dagger" unicode="&#x2020;" 
d="M259 -131v552h-179v76h179v197h84v-197h179v-76h-179v-552h-84z" />
    <glyph glyph-name="daggerdbl" unicode="&#x2021;" 
d="M259 -131v198h-179v75h179v279h-179v76h179v197h84v-197h179v-76h-179v-279h179v-75h-179v-198h-84z" />
    <glyph glyph-name="bullet" unicode="&#x2022;" 
d="M223 334q0 33 23 56t55 23t55 -23.5t23 -55.5t-23 -55t-55 -23t-55 22.5t-23 55.5z" />
    <glyph glyph-name="ellipsis" unicode="&#x2026;" 
d="M31 50q0 28 20 48t48 20t48.5 -20t20.5 -48q0 -29 -20 -49t-49 -20q-28 0 -48 19.5t-20 49.5zM232 50q0 28 20 48t48 20t48.5 -20t20.5 -48q0 -29 -20 -49t-49 -20q-28 0 -48 19.5t-20 49.5zM433 50q0 28 20 48t48 20t48.5 -20t20.5 -48q0 -29 -20 -49t-49 -20
q-28 0 -48 19.5t-20 49.5z" />
    <glyph glyph-name="perthousand" unicode="&#x2030;" 
d="M322 141q0 59 41 99.5t99 40.5q57 0 98.5 -41t41.5 -99t-41 -99.5t-99 -41.5q-57 0 -98.5 40.5t-41.5 100.5zM381 141q0 -34 24 -58t57 -24t57 24t24 58q0 33 -24 57t-57 24t-57 -23.5t-24 -57.5zM0 559q0 59 41 99.5t99 40.5q57 0 98.5 -41t41.5 -99t-41 -99.5
t-99 -41.5q-57 0 -98.5 40.5t-41.5 100.5zM59 559q0 -34 24 -57.5t57 -23.5t57 23.5t24 57.5q0 33 -24 57t-57 24t-57 -23.5t-24 -57.5zM22 141q0 59 41 99.5t98 40.5t98.5 -41t41.5 -99t-41 -99.5t-99 -41.5q-57 0 -98 40.5t-41 100.5zM81 141q0 -34 23.5 -58t56.5 -24
t57 24t24 58q0 33 -24 57t-57 24t-56.5 -23.5t-23.5 -57.5zM35 277l-18 47l510 203l19 -47z" />
    <glyph glyph-name="guilsinglleft" unicode="&#x2039;" 
d="M380 452v-94l-104 -89l104 -90v-94l-158 130v107z" />
    <glyph glyph-name="guilsinglright" unicode="&#x203a;" 
d="M222 452l158 -130v-107l-158 -130v94l104 90l-104 89v94z" />
    <glyph glyph-name="fraction" unicode="&#x2044;" 
d="M145 -93l241 806h70l-242 -806h-69z" />
    <glyph glyph-name="trademark" unicode="&#x2122;" 
d="M420 485l30 107q6 23 32 23h32q24 0 24 -26q0 -21 -22 -26l5 -172q26 -3 26 -27q0 -12 -7 -19.5t-18 -7.5h-53q-32 0 -32 27t32 27h4v138l-25 -92q-7 -24 -28 -24q-22 0 -29 24l-25 92v-138h4q33 0 33 -27t-31 -27h-53q-25 0 -25 27q0 24 25 27l5 172q-21 4 -21 26
q0 26 24 26h31q27 0 33 -23zM108 517q-1 -20 -6.5 -28t-20.5 -8q-24 0 -24 33v5l2 71q0 26 26 26h165q24 0 26 -26l3 -71v-13q0 -11 -7 -18t-18 -7q-15 0 -20 8t-6 28l-2 45h-32v-171h18q18 0 26 -6t8 -21q0 -11 -7 -19t-18 -8h-107q-11 0 -18 7.5t-7 19.5q0 15 8 21t27 6
h17v171h-32z" />
    <glyph glyph-name="minus" unicode="&#x2212;" 
d="M533 391v-69h-465v69h465z" />
    <glyph glyph-name="fi" unicode="&#xfb01;" 
d="M112 444h-100v75h100v49q0 149 178 149q30 0 61 -4v-76q-27 3 -45 3q-51 0 -78.5 -23t-27.5 -65v-33h122v-75h-122v-444h-88v444zM441 0v519h88v-519h-88zM529 717v-99h-88v99h88z" />
    <glyph glyph-name="fl" unicode="&#xfb02;" 
d="M112 444h-100v75h100v49q0 149 178 149q30 0 61 -4v-76q-27 3 -45 3q-51 0 -78.5 -23t-27.5 -65v-33h122v-75h-122v-444h-88v444zM441 0v717h88v-717h-88z" />
  </font>
</defs>
</svg>
